<svg width="22" height="22" version="1.1" viewBox="0 0 5.8206 5.8208" xmlns="http://www.w3.org/2000/svg" xmlns:xlink="http://www.w3.org/1999/xlink">
 <g transform="matrix(-1 0 0 -1 115.08 155.57)">
  <g transform="matrix(-.99987 0 0 -1 529.16 132.29)" stroke-width="1.0001">
   <g transform="translate(-273.92 9.2604)" stroke-width="1.0001"></g>
  </g>
  <path d="m112.17 155.57c1.6065 0 2.9104-1.3039 2.9104-2.9104 0-1.6065-1.3039-2.9104-2.9104-2.9104s-2.9104 1.3039-2.9104 2.9104c0 1.6065 1.3039 2.9104 2.9104 2.9104zm0-0.87312c-0.48313 0-0.8731-0.38999-0.8731-0.87311 0-0.48313 0.38998-0.87312 0.8731-0.87312s0.87312 0.38999 0.87312 0.87312c0 0.48312-0.39 0.87311-0.87312 0.87311zm0-4.1327c0.7276 0 1.3708 0.37253 1.7462 0.93715-9e-3 0.57917-1.1642 0.8964-1.7462 0.8964-0.57917 0-1.7375-0.31723-1.7462-0.8964 0.37542-0.56461 1.0186-0.93715 1.7462-0.93715z" fill="#666" stroke-width=".23812"/>
 </g>
</svg>
